<svg width="321" height="157" viewBox="0 0 321 157" fill="none" xmlns="http://www.w3.org/2000/svg">
<path d="M0.922852 68.941C0.922852 65.296 1.89126 62.322 3.82806 60.021C4.46596 59.679 5.21795 59.417 6.08395 59.234C6.94995 59.029 7.86095 58.927 8.81796 58.927C10.505 58.927 12.02 59.223 13.364 59.815C13.364 60.476 13.376 60.966 13.398 61.285C13.421 63.587 13.478 65.558 13.569 67.198C13.66 68.816 13.866 70.616 14.185 72.599C14.526 74.581 15.039 76.643 15.723 78.785C16.247 78.922 16.953 78.99 17.842 78.99L19.072 78.956C19.277 78.933 19.574 78.922 19.961 78.922L20.474 78.956C20.542 77.156 20.576 74.854 20.576 72.052C20.576 66.629 20.462 60.123 20.234 52.535C20.075 47.226 19.995 42.862 19.995 39.444C19.995 36.368 20.063 33.998 20.2 32.335C17.762 32.426 15.768 32.54 14.219 32.677L14.116 42.281C12.749 42.623 11.541 42.851 10.493 42.965C9.46795 43.079 8.33996 43.124 7.10896 43.102C6.53996 42.646 5.92395 41.78 5.26395 40.504C4.62595 39.205 4.08996 37.735 3.65716 36.095C3.22426 34.431 3.00775 32.859 3.00775 31.378C3.00775 29.327 3.37235 27.618 4.10195 26.251C4.85395 24.884 5.96995 23.893 7.45095 23.277C8.22595 22.867 9.11495 22.56 10.117 22.354C11.143 22.127 12.419 21.922 13.945 21.739C15.586 21.534 17.409 21.432 19.414 21.432C21.533 21.432 23.732 21.534 26.011 21.739C28.312 21.922 30.454 22.184 32.437 22.525L34.248 24.645C33.997 32.87 33.7919 39.023 33.6329 43.102C33.5419 44.788 33.439 47.704 33.325 51.852C33.097 58.277 32.892 63.609 32.71 67.848C32.528 72.063 32.334 75.105 32.129 76.974C31.924 78.819 31.639 80.392 31.274 81.69C30.933 83.012 30.397 84.163 29.668 85.143C28.734 86.373 27.469 87.285 25.874 87.877C24.302 88.469 22.524 88.766 20.542 88.766C17.192 88.766 14.355 88.355 12.031 87.535C9.70695 86.715 7.71296 85.336 6.04996 83.399C4.40896 81.485 3.04195 78.865 1.94815 75.538C1.26455 73.396 0.922852 71.197 0.922852 68.941ZM40.503 53.8C40.503 49.675 41.164 46.098 42.485 43.067C43.807 40.037 45.835 37.69 48.569 36.026C51.304 34.34 54.7329 33.497 58.8569 33.497C63.4149 33.497 66.992 34.352 69.59 36.061C72.188 37.747 73.999 40.094 75.024 43.102C76.073 46.109 76.597 49.789 76.597 54.142C76.597 58.084 75.9019 61.604 74.5119 64.703C73.1449 67.779 71.071 70.217 68.291 72.018C65.534 73.795 62.15 74.684 58.14 74.684C51.942 74.684 47.453 72.781 44.673 68.976C41.893 65.147 40.503 60.089 40.503 53.8ZM59.541 64.669C60.703 64.669 61.41 64.578 61.66 64.396C62.184 63.484 62.583 62.197 62.856 60.533C63.13 58.87 63.267 57.07 63.267 55.133C63.267 53.355 63.153 51.692 62.925 50.143C62.697 48.57 62.378 47.34 61.968 46.451C61.717 46.155 61.216 45.938 60.464 45.802C59.712 45.642 58.892 45.562 58.003 45.562C56.841 45.562 56.043 45.688 55.61 45.938C54.471 47.898 53.901 50.621 53.901 54.107C53.901 55.748 54.0269 57.423 54.2769 59.132C54.5279 60.841 54.8469 62.39 55.2339 63.78C55.5079 64.076 56.066 64.304 56.909 64.464C57.752 64.601 58.63 64.669 59.541 64.669ZM80.2879 46.417C79.9459 45.437 79.673 44.309 79.468 43.033C79.263 41.757 79.16 40.515 79.16 39.308C79.753 37.621 80.7779 36.22 82.2359 35.104C83.7169 33.987 85.529 33.429 87.671 33.429C89.722 33.429 91.374 34.078 92.627 35.377C93.903 36.653 95.031 38.658 96.011 41.393C97.036 44.264 97.868 47.659 98.506 51.578C99.144 55.497 99.588 59.724 99.839 64.259L100.83 64.293C101.833 62.288 102.699 59.428 103.428 55.714C104.157 51.977 104.533 48.434 104.556 45.084L100.283 44.332C99.987 43.215 99.782 42.236 99.668 41.393C99.554 40.527 99.4969 39.581 99.4969 38.556L99.531 37.599C99.941 37.006 100.625 36.391 101.582 35.753C102.539 35.115 103.678 34.579 105 34.146C106.344 33.714 107.746 33.497 109.204 33.497C115.083 33.497 118.022 36.448 118.022 42.35C118.022 45.859 117.396 49.618 116.143 53.629C114.889 57.617 113.078 61.422 110.708 65.045C108.361 68.668 105.592 71.653 102.402 74C101.286 74.456 99.771 74.684 97.856 74.684C96.831 74.684 95.68 74.456 94.404 74C93.128 73.567 92.183 73.111 91.567 72.633L90.85 70.24C89.209 64.68 87.728 59.895 86.406 55.885C85.085 51.852 83.877 48.855 82.783 46.896L80.2879 46.417ZM121.509 54.142C121.509 50.2 122.17 46.679 123.491 43.58C124.813 40.481 126.852 38.032 129.609 36.231C132.389 34.409 135.853 33.497 140 33.497C142.165 33.497 144.329 33.759 146.494 34.283C148.659 34.785 150.493 35.628 151.997 36.812C153.387 37.929 154.39 39.41 155.005 41.256C155.643 43.079 155.962 45.107 155.962 47.34C155.962 48.821 155.837 50.336 155.586 51.886C155.312 52.341 154.777 52.945 153.979 53.697C153.182 54.426 152.248 55.144 151.177 55.851C150.106 56.557 149.069 57.104 148.066 57.491C147.109 57.56 146.118 57.594 145.093 57.594C143.293 57.594 141.47 57.514 139.624 57.354C137.778 57.195 136.16 57.013 134.771 56.808C134.953 58.744 135.545 60.431 136.548 61.866C137.55 63.302 139.146 64.02 141.333 64.02C141.538 64.02 141.868 63.997 142.324 63.951C143.714 63.814 145.332 63.45 147.178 62.857C149.046 62.242 150.903 61.536 152.749 60.738C153.615 61.604 154.253 62.47 154.663 63.336C155.073 64.202 155.358 65.444 155.518 67.062C154.811 67.882 153.66 68.884 152.065 70.069C150.493 71.254 148.568 72.325 146.289 73.282C144.01 74.216 141.629 74.684 139.146 74.684C135.409 74.684 132.207 73.784 129.541 71.983C126.898 70.16 124.893 67.7 123.525 64.601C122.181 61.479 121.509 57.993 121.509 54.142ZM143.521 46.28C143.201 45.938 142.666 45.676 141.914 45.494C141.162 45.289 140.376 45.187 139.556 45.187C138.895 45.187 138.223 45.243 137.539 45.357C136.878 45.471 136.479 45.597 136.343 45.733C135.568 47.26 135.078 48.992 134.873 50.929L143.999 50.04L143.521 46.28ZM163.721 62.105C163.721 58.391 163.766 55.589 163.857 53.697C163.949 51.783 164.188 48.98 164.575 45.289L160.645 44.776C160.166 43.295 159.847 41.974 159.688 40.812C159.551 39.649 159.482 38.146 159.482 36.3C159.847 35.981 160.451 35.605 161.294 35.172C162.16 34.716 163.174 34.329 164.336 34.01C165.521 33.668 166.717 33.497 167.925 33.497C170.682 33.497 172.63 34.09 173.77 35.274C174.932 36.459 175.513 38.237 175.513 40.606C175.513 41.928 175.319 43.717 174.932 45.973C174.294 49.596 173.975 51.498 173.975 51.681C173.975 51.795 174.054 51.909 174.214 52.022C174.373 52.114 174.544 52.159 174.727 52.159C174.932 52.159 175.068 52.079 175.137 51.92C175.114 52.011 175.376 50.86 175.923 48.468C176.584 45.323 177.256 42.76 177.939 40.777C178.646 38.795 179.762 37.097 181.289 35.685C182.816 34.272 184.889 33.565 187.51 33.565C190.745 33.565 193.081 34.5 194.517 36.368C195.952 38.214 196.67 40.675 196.67 43.751C196.67 46.189 196.26 48.901 195.439 51.886C195.439 52 195.519 52.114 195.679 52.228C195.838 52.319 196.009 52.364 196.191 52.364C196.396 52.364 196.533 52.285 196.602 52.125L197.08 50.211C197.9 46.839 198.709 44.036 199.507 41.803C200.327 39.57 201.546 37.644 203.164 36.026C204.805 34.386 206.935 33.565 209.556 33.565C212.996 33.565 215.469 34.671 216.973 36.881C218.499 39.091 219.263 41.871 219.263 45.221C219.263 47.59 219.035 49.972 218.579 52.364C218.146 54.757 217.679 56.762 217.178 58.38C216.699 59.998 216.107 61.866 215.4 63.985L215.469 64.054L220.527 61.935C222.305 63.461 223.341 65.489 223.638 68.019C223.638 68.178 223.125 68.839 222.1 70.001C221.074 71.14 219.718 72.211 218.032 73.214C216.369 74.194 214.455 74.684 212.29 74.684C210.125 74.684 208.359 74.103 206.992 72.94C205.625 71.778 204.941 69.796 204.941 66.993C204.941 63.871 204.998 60.67 205.112 57.389C205.249 54.085 205.443 51.122 205.693 48.502C205.306 48.183 204.771 48.012 204.087 47.989C203.403 48.65 202.549 50.097 201.523 52.33C200.498 54.54 199.552 56.91 198.687 59.439C197.821 61.946 197.274 63.906 197.046 65.318C197.365 67.551 197.855 69.762 198.516 71.949C198.105 72.724 197.262 73.373 195.986 73.897C194.71 74.422 193.138 74.684 191.27 74.684C189.583 74.684 188.262 74.547 187.305 74.273C186.348 74 185.687 73.715 185.322 73.419C184.98 73.123 184.81 72.929 184.81 72.838C184.787 72.633 184.73 72.097 184.639 71.231C184.548 70.343 184.456 69.112 184.365 67.54C184.274 65.945 184.229 64.133 184.229 62.105C184.229 60.169 184.377 57.742 184.673 54.825C184.696 54.461 184.764 53.595 184.878 52.228C184.992 50.86 185.049 49.618 185.049 48.502C184.661 48.183 184.126 48.012 183.442 47.989C183.055 48.285 181.973 50.177 180.195 53.663C178.418 57.149 177.233 59.61 176.641 61.046C176.595 61.365 176.572 61.673 176.572 61.969C176.572 63.108 176.743 64.646 177.085 66.583C177.427 68.497 177.848 70.286 178.35 71.949C177.939 72.724 177.096 73.373 175.82 73.897C174.544 74.422 172.972 74.684 171.104 74.684C169.417 74.684 168.062 74.547 167.036 74.273C166.034 74 165.327 73.715 164.917 73.419C164.507 73.1 164.302 72.906 164.302 72.838C164.279 72.633 164.222 72.097 164.131 71.231C164.04 70.343 163.949 69.112 163.857 67.54C163.766 65.945 163.721 64.133 163.721 62.105Z" fill="black"/>
<path d="M91.981 116.707C91.981 109.826 92.084 104.539 92.289 100.848H92.255L87.367 100.13C87.071 99.287 86.843 98.353 86.684 97.327C86.524 96.302 86.444 95.311 86.444 94.354C86.444 93.624 86.501 92.827 86.615 91.961C89.418 90.958 93.28 90.218 98.202 89.739C103.124 89.261 107.864 89.021 112.421 89.021C115.907 89.021 118.904 89.295 121.41 89.842C123.917 90.389 126.013 91.631 127.699 93.567C129.408 95.481 130.263 98.353 130.263 102.181C130.263 104.095 129.853 106.328 129.032 108.88C128.235 111.409 127.209 113.882 125.956 116.297C124.726 118.689 123.484 120.626 122.23 122.107C120.385 124.318 118.334 125.617 116.078 126.004C112.341 126.596 108.388 126.893 104.218 126.893C104.127 129.24 104.092 130.926 104.115 131.951L109.208 131.609C110.256 133.318 110.837 135.346 110.951 137.693C110.951 137.807 110.438 138.297 109.413 139.163C108.388 140.029 107.032 140.826 105.346 141.556C103.682 142.285 101.768 142.649 99.604 142.649C97.462 142.649 95.753 142.068 94.477 140.906C93.223 139.721 92.597 137.682 92.597 134.788C92.209 130.049 92.016 124.033 92.016 116.741L91.981 116.707ZM113.617 117.288C114.21 114.782 114.7 112.127 115.087 109.324C115.497 106.499 115.725 104.038 115.771 101.941C115.657 101.736 115.076 101.554 114.027 101.395C112.979 101.235 111.623 101.155 109.96 101.155C108.798 101.155 107.351 101.201 105.619 101.292C105.414 108.174 105.141 113.699 104.799 117.869L113.617 117.288ZM143.729 119.476C145.074 119.476 146.555 119.612 148.173 119.886C149.813 120.159 151.317 120.49 152.685 120.877V119.817C152.685 119.111 152.662 118.325 152.616 117.459C152.593 116.593 152.548 116.023 152.479 115.75C152.274 115.363 151.682 114.964 150.702 114.554C149.745 114.144 148.173 113.938 145.985 113.938C144.641 113.938 143.251 114.109 141.815 114.451C140.403 114.77 138.83 115.203 137.099 115.75C136.164 114.201 135.412 112.731 134.843 111.341C134.296 109.928 134.022 108.515 134.022 107.103C134.022 106.67 134.057 106.237 134.125 105.804C137.816 102.933 142.59 101.497 148.446 101.497C151.682 101.497 154.553 101.862 157.06 102.591C159.566 103.32 161.628 104.733 163.246 106.829C164.864 108.925 165.673 111.899 165.673 115.75C165.673 119.51 165.229 123.156 164.34 126.688C163.474 130.197 163.03 131.985 163.007 132.054L167.963 129.935C168.624 130.641 169.205 131.507 169.706 132.532C170.23 133.535 170.561 134.697 170.697 136.019C170.378 136.702 169.683 137.579 168.612 138.65C167.541 139.699 166.231 140.633 164.682 141.453C163.132 142.273 161.514 142.684 159.828 142.684C157.937 142.684 156.501 142.125 155.521 141.009C154.564 139.892 154.086 138.445 154.086 136.668C154.086 135.665 154.234 134.651 154.53 133.626L153.505 133.318C152.867 136.919 151.511 139.38 149.438 140.701C147.364 142.023 145.074 142.684 142.567 142.684C140.927 142.684 139.343 142.228 137.816 141.316C136.29 140.382 135.048 139.038 134.091 137.283C133.134 135.506 132.655 133.432 132.655 131.062C132.655 127.28 133.601 124.409 135.492 122.449C137.383 120.467 140.129 119.476 143.729 119.476ZM147.626 132.498C148.196 132.384 148.868 132.065 149.643 131.541C150.44 131.017 151.146 130.39 151.762 129.661C152.377 128.932 152.742 128.237 152.855 127.576L152.65 126.756C151.443 126.596 150.155 126.517 148.788 126.517C147.626 126.517 146.828 126.608 146.396 126.79C145.666 127.61 145.302 128.522 145.302 129.524C145.302 130.254 145.484 130.914 145.849 131.507C146.236 132.099 146.828 132.43 147.626 132.498ZM149.916 80.716C152.445 81.924 154.394 83.313 155.761 84.886C157.151 86.458 158.062 88.099 158.495 89.808C156.399 91.767 153.904 93.545 151.01 95.14C148.116 96.735 145.256 97.954 142.431 98.797C141.61 98.273 140.824 97.498 140.072 96.473C139.32 95.424 138.808 94.41 138.534 93.431L149.916 80.716ZM192.401 147.435C193.928 147.435 195.25 147.264 196.366 146.922C196.708 146.58 196.947 146.181 197.084 145.726C197.221 145.293 197.289 144.882 197.289 144.495C197.289 144.085 197.255 143.777 197.187 143.572C197.118 143.39 197.004 143.219 196.845 143.06C195.888 142.9 194.76 142.786 193.461 142.718C192.185 142.672 191.422 142.638 191.171 142.615C188.004 142.479 185.429 142.251 183.446 141.932C181.464 141.59 179.766 140.861 178.354 139.744C176.941 138.605 176.234 136.896 176.234 134.617C176.234 133.387 176.633 132.236 177.431 131.165C178.228 130.071 179.265 129.114 180.541 128.294C177.943 127.223 175.858 125.617 174.286 123.475C172.737 121.31 171.962 118.519 171.962 115.101C171.962 111.705 172.828 108.982 174.56 106.932C176.314 104.858 178.467 103.4 181.02 102.557C183.572 101.714 186.169 101.292 188.812 101.292C190.476 101.292 192.105 101.451 193.7 101.771C195.295 102.09 196.776 102.545 198.144 103.138L196.674 94.456C198.064 93.613 199.796 93.191 201.869 93.191C203.373 93.191 204.774 93.442 206.073 93.943C207.372 94.445 208.363 95.162 209.047 96.097C209.092 96.325 209.115 96.689 209.115 97.19C209.115 99.059 208.773 101.144 208.09 103.445C207.429 105.724 206.278 107.558 204.638 108.948C205.458 110.589 205.868 112.355 205.868 114.246C205.868 117.026 205.333 119.59 204.262 121.937C203.214 124.284 201.459 126.198 198.998 127.679C196.537 129.137 193.336 129.866 189.394 129.866C188.254 129.866 187.069 129.798 185.839 129.661C185.771 130.8 186.044 131.94 186.659 133.079C189.735 132.487 192.219 132.179 194.11 132.156L196.435 132.122C199.579 132.122 201.96 132.316 203.578 132.703C205.355 133.136 206.677 134.116 207.543 135.643C208.432 137.169 208.876 139.026 208.876 141.214C208.876 144.632 207.828 147.503 205.731 149.827C203.658 152.174 200.958 153.917 197.631 155.057C194.327 156.196 190.818 156.766 187.104 156.766C183.663 156.766 180.598 156.185 177.909 155.022C175.22 153.86 173.523 151.73 172.816 148.631C173.568 146.01 175.004 144.028 177.123 142.684C179.971 144.393 182.694 145.612 185.292 146.341C187.912 147.07 190.282 147.435 192.401 147.435ZM190.316 121.424C191.957 121.424 192.914 121.321 193.188 121.116C193.803 119.886 194.11 118.621 194.11 117.322C194.11 115.978 193.803 114.713 193.188 113.528C192.891 113.278 192.23 113.084 191.205 112.947C190.202 112.811 189.109 112.742 187.924 112.742C186.443 112.742 185.451 112.833 184.95 113.016C184.244 114.269 183.891 115.534 183.891 116.81C183.891 118.108 184.221 119.339 184.882 120.501C185.383 120.82 186.135 121.059 187.138 121.219C188.163 121.355 189.223 121.424 190.316 121.424ZM213.593 92.952C213.593 90.947 214.242 89.318 215.541 88.064C216.863 86.811 218.959 86.185 221.83 86.185C224.701 86.185 226.786 86.811 228.085 88.064C229.407 89.318 230.067 90.947 230.067 92.952C230.067 94.091 229.669 95.14 228.871 96.097C228.096 97.054 227.071 97.817 225.795 98.387C224.519 98.934 223.197 99.207 221.83 99.207C220.349 99.207 218.97 98.888 217.694 98.25C216.441 97.589 215.438 96.769 214.687 95.789C213.957 94.809 213.593 93.864 213.593 92.952ZM211.918 112.503C211.622 111.386 211.417 110.372 211.303 109.461C211.189 108.527 211.132 107.558 211.132 106.556L211.166 105.599C211.645 104.983 212.385 104.368 213.388 103.753C214.413 103.115 215.598 102.579 216.942 102.146C218.31 101.714 219.722 101.497 221.181 101.497C224.371 101.497 226.638 102.215 227.982 103.65C229.327 105.086 229.999 107.319 229.999 110.35C229.999 112.173 229.737 114.554 229.213 117.493C228.712 120.433 228.096 123.292 227.367 126.072C226.661 128.829 226.046 130.8 225.521 131.985L225.59 132.054L230.648 130.208C231.56 130.983 232.243 131.837 232.699 132.771C233.178 133.706 233.485 134.788 233.622 136.019C233.622 136.178 233.121 136.839 232.118 138.001C231.116 139.14 229.783 140.211 228.119 141.214C226.479 142.194 224.576 142.684 222.411 142.684C220.224 142.684 218.446 142.091 217.079 140.906C215.735 139.721 215.062 137.693 215.062 134.822C215.062 131.473 215.154 127.918 215.336 124.158C215.518 120.398 215.803 116.753 216.19 113.221L211.918 112.503ZM239.774 130.105C239.774 126.391 239.82 123.589 239.911 121.697C240.002 119.783 240.242 116.98 240.629 113.289L236.664 112.776C236.186 111.295 235.867 109.974 235.707 108.812C235.57 107.649 235.502 106.146 235.502 104.3C235.867 103.981 236.47 103.605 237.313 103.172C238.179 102.716 239.205 102.329 240.39 102.01C241.575 101.668 242.771 101.497 243.979 101.497C246.736 101.497 248.684 102.09 249.823 103.274C250.985 104.459 251.566 106.237 251.566 108.606C251.566 109.928 251.373 111.717 250.985 113.973C250.347 117.596 250.028 119.498 250.028 119.681C250.028 119.795 250.108 119.909 250.268 120.022C250.427 120.114 250.598 120.159 250.78 120.159C250.985 120.159 251.122 120.079 251.19 119.92C252.102 116.297 253.013 113.266 253.925 110.828C254.836 108.39 256.215 106.225 258.061 104.334C259.906 102.443 262.299 101.497 265.238 101.497C268.884 101.497 271.505 102.614 273.1 104.847C274.695 107.057 275.492 109.848 275.492 113.221C275.492 116.229 275.139 119.134 274.433 121.937C273.726 124.716 272.849 127.622 271.801 130.652C271.846 130.538 271.687 130.983 271.322 131.985L271.391 132.054L276.381 130.003C278.158 131.53 279.195 133.558 279.491 136.087C279.491 136.246 278.979 136.896 277.953 138.035C276.951 139.174 275.618 140.234 273.954 141.214C272.291 142.194 270.377 142.684 268.212 142.684C266.047 142.684 264.281 142.103 262.914 140.94C261.547 139.778 260.863 137.796 260.863 134.993C260.863 132.76 260.954 129.775 261.137 126.038C261.319 122.301 261.501 119.293 261.684 117.015C261.091 116.377 260.362 116.035 259.496 115.989C258.699 117.015 257.525 119.065 255.976 122.142C254.426 125.218 253.332 127.519 252.694 129.046C252.649 129.365 252.626 129.673 252.626 129.969C252.626 131.108 252.797 132.646 253.139 134.583C253.48 136.497 253.902 138.286 254.403 139.949C253.993 140.724 253.15 141.373 251.874 141.897C250.598 142.422 249.026 142.684 247.157 142.684C245.471 142.684 244.115 142.547 243.09 142.273C242.087 142 241.381 141.715 240.971 141.419C240.561 141.1 240.355 140.906 240.355 140.838C240.333 140.633 240.276 140.097 240.185 139.231C240.093 138.343 240.002 137.112 239.911 135.54C239.82 133.945 239.774 132.133 239.774 130.105ZM293.095 119.476C294.439 119.476 295.92 119.612 297.538 119.886C299.179 120.159 300.683 120.49 302.05 120.877V119.817C302.05 119.111 302.027 118.325 301.981 117.459C301.959 116.593 301.913 116.023 301.845 115.75C301.64 115.363 301.047 114.964 300.067 114.554C299.11 114.144 297.538 113.938 295.351 113.938C294.006 113.938 292.616 114.109 291.181 114.451C289.768 114.77 288.196 115.203 286.464 115.75C285.53 114.201 284.778 112.731 284.208 111.341C283.661 109.928 283.388 108.515 283.388 107.103C283.388 106.67 283.422 106.237 283.49 105.804C287.182 102.933 291.955 101.497 297.812 101.497C301.047 101.497 303.918 101.862 306.425 102.591C308.931 103.32 310.993 104.733 312.611 106.829C314.229 108.925 315.038 111.899 315.038 115.75C315.038 119.51 314.594 123.156 313.705 126.688C312.839 130.197 312.395 131.985 312.372 132.054L317.328 129.935C317.989 130.641 318.57 131.507 319.071 132.532C319.595 133.535 319.926 134.697 320.062 136.019C319.743 136.702 319.049 137.579 317.978 138.65C316.907 139.699 315.596 140.633 314.047 141.453C312.497 142.273 310.88 142.684 309.193 142.684C307.302 142.684 305.867 142.125 304.887 141.009C303.93 139.892 303.451 138.445 303.451 136.668C303.451 135.665 303.599 134.651 303.896 133.626L302.87 133.318C302.232 136.919 300.876 139.38 298.803 140.701C296.729 142.023 294.439 142.684 291.933 142.684C290.292 142.684 288.708 142.228 287.182 141.316C285.655 140.382 284.413 139.038 283.456 137.283C282.499 135.506 282.021 133.432 282.021 131.062C282.021 127.28 282.966 124.409 284.857 122.449C286.749 120.467 289.494 119.476 293.095 119.476ZM296.991 132.498C297.561 132.384 298.233 132.065 299.008 131.541C299.805 131.017 300.512 130.39 301.127 129.661C301.742 128.932 302.107 128.237 302.221 127.576L302.016 126.756C300.808 126.596 299.521 126.517 298.153 126.517C296.991 126.517 296.194 126.608 295.761 126.79C295.032 127.61 294.667 128.522 294.667 129.524C294.667 130.254 294.849 130.914 295.214 131.507C295.601 132.099 296.194 132.43 296.991 132.498Z" fill="black"/>
<path d="M287.436 0.389038C289.593 5.82104 289.592 5.82104 286.54 10.807C291.973 8.65004 291.973 8.65003 296.958 11.702C294.802 6.26903 294.801 6.26903 297.853 1.28403C292.421 3.44103 292.421 3.44104 287.436 0.389038ZM253.543 3.23804C251.606 6.69004 251.606 6.69003 247.682 7.21103C251.134 9.14803 251.134 9.14804 251.655 13.072C253.592 9.62004 253.592 9.62003 257.516 9.09903C254.064 7.16203 254.064 7.16204 253.543 3.23804ZM266.102 12.456C265.946 20.755 265.946 20.755 259.213 25.61C267.512 25.766 267.512 25.766 272.367 32.499C272.523 24.199 272.523 24.199 279.256 19.344C270.957 19.189 270.957 19.189 266.102 12.456ZM297.467 21.624C297.459 25.582 297.459 25.582 294.288 27.951C298.246 27.959 298.246 27.959 300.615 31.13C300.623 27.172 300.623 27.172 303.794 24.803C299.836 24.795 299.836 24.795 297.467 21.624ZM267.265 35.386C267.074 35.39 266.883 35.397 266.692 35.408C263.642 35.582 259.823 36.788 253.987 39.108L247.471 68.135C260.347 64.733 269.286 64.54 275.524 67.377V37.64C272.558 36.194 270.308 35.442 267.861 35.386C267.662 35.382 267.463 35.382 267.265 35.386ZM287.394 37.259C286.928 37.255 286.462 37.261 285.997 37.275C283.895 37.344 281.462 37.639 278.476 38.017V67.078C285.623 65.795 296.006 66.389 306.571 68.32L300.044 39.248C294.154 37.875 290.76 37.294 287.394 37.259ZM287.769 40.04C290.868 40.074 293.815 40.494 296.58 40.864L297.308 43.575C293.407 42.959 286.486 42.77 282.138 43.414L282.034 40.493C283.996 40.139 285.91 40.02 287.769 40.04ZM246.674 40.804L244.932 48.352H248.885L250.579 40.804H246.674ZM303.42 40.804L309.94 69.849L310.308 71.485L314.014 71.46L307.311 40.804H303.42ZM290.483 50.29C293.271 50.295 296.007 50.42 298.546 50.655L299.124 53.473C293.768 52.967 287.216 52.999 282.226 53.473L282.11 50.655C284.855 50.404 287.695 50.286 290.483 50.29ZM244.251 51.304L243.115 56.227H247.117L248.222 51.304H244.251ZM289.273 55.774C290.037 55.778 290.829 55.788 291.687 55.807L292.106 58.678C288.83 58.601 284.377 58.77 282.307 58.85L282.192 55.9C284.949 55.819 286.981 55.764 289.273 55.774ZM296.078 55.847C297.434 55.854 298.817 55.902 300.035 55.859L300.458 58.769C299.039 58.718 296.378 58.633 295.198 58.687L294.737 55.859C295.184 55.848 295.631 55.844 296.078 55.847ZM242.434 59.179L239.483 71.964L243.591 71.937L246.454 59.179H242.434ZM292.172 61.123C295.389 61.122 298.514 61.25 301.433 61.545L301.925 64.956C296.296 64.259 287.855 63.693 282.385 64.423L282.362 61.483C285.646 61.257 288.955 61.125 292.172 61.123ZM264.838 68.35C259.898 68.365 253.696 69.376 245.904 71.592L244.719 71.929L275.524 71.72V70.679C272.86 69.169 269.384 68.337 264.838 68.35ZM286.89 69.363C283.669 69.374 280.801 69.599 278.476 70.049V71.7L307.613 71.503C300.341 70.086 292.989 69.342 286.89 69.363ZM239.266 74.93V77.883H314.734V74.93H239.266Z" fill="#38046F"/>
</svg>
